<svg width="80" height="80" viewBox="0 0 80 80" fill="none" xmlns="http://www.w3.org/2000/svg">
<g clip-path="url(#clip0)">
<path d="M58.7306 8.55496C64.6613 10.9443 70.1653 15.211 73.7493 20.7576C77.3333 26.3043 79.0399 33.131 77.8879 39.3603C76.7786 45.547 72.8106 51.0936 69.3546 56.8536C65.8559 62.6136 62.9119 68.587 58.1333 71.6163C53.3119 74.6883 46.6559 74.7736 40.2559 74.3043C33.8986 73.835 27.7546 72.811 22.4213 70.0803C17.0879 67.3923 12.4799 62.955 9.40795 57.6643C6.29328 52.331 4.62928 46.187 6.50661 41.067C8.34128 35.9896 13.7173 31.9363 17.3013 27.4563C20.8853 22.9763 22.6773 18.0696 26.1759 14.2296C29.6746 10.3896 34.8373 7.65896 40.5973 6.5923C46.3999 5.52563 52.7999 6.12297 58.7306 8.55496Z" fill="#E6EBFF"/>
<path d="M67.0207 77.0366H12.5833C11.8958 77.0366 11.3333 76.4741 11.3333 75.7866V4.5835C11.3333 3.896 11.8958 3.3335 12.5833 3.3335H48.177C49.0207 3.3335 49.8332 3.4585 50.5989 3.7085C50.677 3.69287 50.7707 3.67725 50.8489 3.67725C51.302 3.67725 51.7082 3.92725 51.927 4.28662C52.7707 4.75537 53.5207 5.396 54.1301 6.16162C55.2551 7.63037 67.4895 24.0522 68.0051 24.7554C68.2864 25.1304 68.3332 25.646 68.1145 26.0679C67.8957 26.4897 67.4739 26.7554 67.0051 26.7554H25.1458C24.4583 26.7554 23.8958 26.1929 23.8958 25.5054V21.3179C23.8958 20.6304 24.4583 20.0679 25.1458 20.0679C25.8333 20.0679 26.3957 20.6304 26.3957 21.3179V24.2554H49.6145V6.021C49.1614 5.896 48.677 5.8335 48.1926 5.8335H13.8333V74.521H65.7707V29.7085C65.7707 29.021 66.3332 28.4585 67.0207 28.4585C67.7082 28.4585 68.2707 29.021 68.2707 29.7085V75.771C68.2707 76.4741 67.7082 77.0366 67.0207 77.0366ZM52.1145 24.271H64.5207C61.1301 19.7085 53.0364 8.84912 52.1614 7.7085C52.1457 7.69287 52.1301 7.67725 52.1145 7.646V24.271ZM20.9583 68.6616C20.2708 68.6616 19.7083 68.0991 19.7083 67.4116C19.7083 66.7241 20.2708 66.1616 20.9583 66.1616C22.7395 66.1616 24.9895 65.1304 25.9895 62.8335C26.4114 61.8804 27.2551 61.2085 28.2708 61.021C29.2864 60.8335 30.3332 61.1616 31.0676 61.896L31.0833 61.9116L31.0989 61.9272C31.677 62.5366 32.1145 62.9585 32.3645 63.1772C33.2395 63.896 35.0989 64.896 36.6301 64.1772C37.8957 63.5991 38.5364 62.1147 38.5364 59.7397C38.5364 59.0522 39.0989 58.4897 39.7864 58.4897C40.4739 58.4897 41.0364 59.0522 41.0364 59.7397C41.0364 64.021 39.2239 65.7554 37.6926 66.4429C35.1926 67.6147 32.3957 66.4429 30.7708 65.0991L30.7551 65.0835C30.4426 64.8022 29.9739 64.3647 29.3176 63.6772C29.3176 63.6772 29.3176 63.6772 29.302 63.6616C29.0833 63.4429 28.8333 63.4585 28.7239 63.4897C28.5989 63.5054 28.3801 63.5835 28.2708 63.8491C26.8176 67.1616 23.552 68.6616 20.9583 68.6616ZM54.4582 51.896H25.1458C24.4583 51.896 23.8958 51.3335 23.8958 50.646C23.8958 49.9585 24.4583 49.396 25.1458 49.396H54.4582C55.1457 49.396 55.7082 49.9585 55.7082 50.646C55.7082 51.3335 55.1457 51.896 54.4582 51.896ZM54.4582 43.521H25.1458C24.4583 43.521 23.8958 42.9585 23.8958 42.271C23.8958 41.5835 24.4583 41.021 25.1458 41.021H54.4582C55.1457 41.021 55.7082 41.5835 55.7082 42.271C55.7082 42.9585 55.1457 43.521 54.4582 43.521ZM54.4582 35.146H25.1458C24.4583 35.146 23.8958 34.5835 23.8958 33.896C23.8958 33.2085 24.4583 32.646 25.1458 32.646H54.4582C55.1457 32.646 55.7082 33.2085 55.7082 33.896C55.7082 34.5835 55.1457 35.146 54.4582 35.146ZM41.8958 18.396H25.1458C24.4583 18.396 23.8958 17.8335 23.8958 17.146C23.8958 16.4585 24.4583 15.896 25.1458 15.896H41.8958C42.5833 15.896 43.1458 16.4585 43.1458 17.146C43.1458 17.8335 42.5833 18.396 41.8958 18.396Z" fill="black"/>
</g>
<defs>
<clipPath id="clip0">
<rect width="80" height="80" fill="white"/>
</clipPath>
</defs>
</svg>
