<svg width="80" height="80" viewBox="0 0 80 80" fill="none" xmlns="http://www.w3.org/2000/svg">
<g clip-path="url(#clip0)">
<path d="M54.3297 14.4477C59.0167 17.5867 63.3167 20.8977 66.9717 25.2407C70.6697 29.5837 73.6797 34.9587 75.0127 41.1077C76.3457 47.2567 75.9587 54.1797 72.2607 58.4367C68.5627 62.7367 61.5537 64.4137 55.5767 66.8647C49.5567 69.3587 44.6117 72.6267 39.2797 73.3577C33.9047 74.0457 28.1427 72.1537 24.1867 68.4987C20.2307 64.8437 18.0377 59.4687 15.0707 54.4807C12.1467 49.4927 8.44874 44.9347 6.94374 39.4307C5.39574 33.9697 6.04074 27.6487 8.44874 21.7577C10.8997 15.9097 15.1137 10.4917 20.6177 7.82571C26.1217 5.15971 32.8727 5.20271 38.7637 6.70771C44.6977 8.25571 49.6857 11.2657 54.3297 14.4477Z" fill="#E6EBFF"/>
<path d="M66.1882 48.6642H62.8757C61.1101 48.6642 59.5945 49.6641 58.8288 51.1173L52.3445 46.2579C52.282 46.211 52.2195 46.1798 52.1726 46.1485C51.8132 45.9141 51.4538 45.7735 51.1101 45.6485H51.0945C51.0007 45.6016 50.8601 45.5235 50.657 45.4767C50.3601 45.4142 50.0788 45.4141 49.8913 45.4141C49.8445 45.4141 49.7976 45.4141 49.7507 45.4141C49.7038 45.4141 49.657 45.4141 49.6101 45.4141C49.4538 45.3985 49.2351 45.3985 49.0007 45.4141C48.9226 45.4141 48.8288 45.4141 48.7351 45.4454L32.1413 48.7579C29.6726 49.2579 28.0632 51.6642 28.5632 54.1329C28.9851 56.2579 30.8757 57.8048 33.0476 57.8048C33.3601 57.8048 33.6569 57.7735 33.9538 57.711L36.9851 57.1017L30.0788 61.0391L19.2038 52.8829C17.1882 51.3673 14.3132 51.7891 12.8132 53.8048C12.0788 54.7735 11.7663 55.9767 11.9382 57.1954C12.1101 58.3985 12.7507 59.4766 13.7195 60.211L27.0007 70.1642C27.032 70.1798 27.0632 70.211 27.0945 70.2267C27.1726 70.2735 27.2351 70.3048 27.282 70.336C27.5007 70.4766 27.7351 70.6017 27.9851 70.6954C28.0476 70.7423 28.1726 70.8048 28.3132 70.8517C28.3913 70.8829 28.4538 70.8985 28.5163 70.8985C28.8913 71.0079 29.2507 71.0548 29.6101 71.0704C29.657 71.0704 29.7038 71.0704 29.7351 71.0704C30.0944 71.0704 30.4694 71.0235 30.8444 70.9298C30.8913 70.9298 30.9382 70.9141 30.9851 70.8985L51.6257 64.9923L58.3445 71.711V73.1329C58.3445 75.6485 60.3913 77.6954 62.907 77.6954H66.2195C68.7351 77.6954 70.782 75.6485 70.782 73.1329V53.2423C70.7663 50.711 68.7195 48.6642 66.1882 48.6642ZM68.2663 73.1485C68.2663 74.2891 67.3445 75.211 66.2038 75.211H62.8913C61.7507 75.211 60.8288 74.2891 60.8288 73.1485V71.211C60.8288 70.8829 60.7038 70.5548 60.4695 70.3204L52.8601 62.711C52.6257 62.4766 52.2976 62.3517 51.9695 62.3517C51.8601 62.3517 51.7351 62.3673 51.6257 62.3985L30.3445 68.4766C30.3288 68.4766 30.2976 68.4923 30.2663 68.4923C30.2507 68.4923 30.2507 68.4923 30.2351 68.4923C30.0632 68.5391 29.907 68.5704 29.7507 68.5704C29.7195 68.5704 29.7038 68.5704 29.6726 68.5704C29.5007 68.5704 29.3132 68.5391 29.0945 68.4766C29.0788 68.4766 29.0788 68.4766 29.0632 68.4766C29.0163 68.461 28.9695 68.4298 28.907 68.3985C28.7663 68.336 28.6413 68.2735 28.5476 68.211C28.4851 68.1642 28.4226 68.1329 28.3601 68.1016L15.157 58.1954C14.7195 57.8673 14.4226 57.3829 14.3445 56.836C14.2663 56.2891 14.407 55.7423 14.7351 55.3048C15.4226 54.3985 16.7195 54.211 17.6257 54.8985L29.1569 63.5391C29.5632 63.836 30.0944 63.8673 30.5319 63.6173L43.8757 55.9923C44.2194 55.8048 44.4382 55.461 44.5007 55.0704C44.5476 54.6798 44.4226 54.2891 44.1413 54.0235L43.8445 53.7266C43.5476 53.4298 43.1257 53.3048 42.7195 53.3829L33.3913 55.2423C33.2663 55.2735 33.1257 55.2891 32.9851 55.2891C32.0007 55.2891 31.1569 54.586 30.9538 53.6329C30.7351 52.5079 31.4538 51.4141 32.5788 51.1954L49.0476 47.8985C49.1101 47.8985 49.1726 47.8985 49.2351 47.8829C49.2663 47.8829 49.3601 47.8829 49.4382 47.8829C49.5007 47.8829 49.5788 47.8829 49.6413 47.8985C49.7195 47.8985 49.7976 47.8985 49.8757 47.8985C49.9226 47.8985 49.9695 47.8985 50.0163 47.8985C50.0788 47.9298 50.157 47.961 50.2351 47.9923C50.4382 48.0704 50.6413 48.1485 50.782 48.2423C50.8288 48.2735 50.8757 48.3048 50.907 48.3204L58.5476 54.0548V67.2423C58.5476 67.8516 59.032 68.336 59.6413 68.336C60.2507 68.336 60.7351 67.8516 60.7351 67.2423V53.5548C60.7663 53.461 60.782 53.3516 60.782 53.2423C60.782 52.1016 61.7038 51.1798 62.8445 51.1798H66.157C67.2976 51.1798 68.2195 52.1016 68.2195 53.2423V73.1485H68.2663ZM34.1726 47.3985C34.4382 47.3985 34.7038 47.3204 34.9226 47.1485L53.5163 33.1954C53.7976 32.9923 53.9695 32.6798 54.0163 32.336C54.0476 31.9923 53.9538 31.6485 53.7195 31.3829L29.4694 3.10165C29.0476 2.60165 28.2976 2.52352 27.7663 2.91415L9.17258 16.8673C8.89133 17.0704 8.71945 17.3829 8.67258 17.7266C8.64133 18.0704 8.73508 18.4141 8.96945 18.6798L33.2194 46.961C33.4694 47.2423 33.8132 47.3985 34.1726 47.3985ZM28.3445 5.61727L50.9538 31.9923L34.3601 44.4454L11.7507 18.0548L28.3445 5.61727ZM35.9069 38.1016L43.8601 32.1329C44.1413 31.9298 44.3132 31.6173 44.3601 31.2735C44.407 30.9298 44.2976 30.586 44.0632 30.3204L36.3132 21.2891C36.157 21.086 36.0007 20.8985 35.8132 20.711L35.7976 20.6954L28.4695 12.1485C28.0476 11.6485 27.2976 11.5704 26.7663 11.961L18.8132 17.9298C18.532 18.1329 18.3601 18.4454 18.3132 18.7891C18.282 19.1329 18.3757 19.4766 18.6101 19.7423L26.3601 28.7735C26.5163 28.9766 26.6726 29.1641 26.8601 29.3516L26.8757 29.3673L34.2038 37.9141C34.4538 38.1954 34.7976 38.3516 35.157 38.3516C35.4226 38.3516 35.6882 38.2735 35.9069 38.1016ZM25.282 23.6485L21.3913 19.1173L27.3445 14.6485L30.9069 18.8048C28.1413 19.0079 25.8757 21.0079 25.282 23.6485ZM28.7507 27.6954L28.3445 27.211C27.8757 26.5704 27.6257 25.8204 27.6257 25.0235C27.6257 22.961 29.2976 21.2891 31.3601 21.2891C32.3445 21.2891 33.2663 21.6641 33.9694 22.3516L34.3757 22.836C34.8445 23.4766 35.0944 24.2266 35.0944 25.0235C35.0944 27.086 33.4226 28.7579 31.3601 28.7579C30.3757 28.7579 29.4382 28.3829 28.7507 27.6954ZM31.7819 31.2423C34.5476 31.0548 36.8132 29.0391 37.4226 26.4141L41.2976 30.9454L35.3445 35.4141L31.7819 31.2423Z" fill="black"/>
</g>
<defs>
<clipPath id="clip0">
<rect width="80" height="80" fill="white"/>
</clipPath>
</defs>
</svg>
