<svg width="80" height="80" viewBox="0 0 80 80" fill="none" xmlns="http://www.w3.org/2000/svg">
<path d="M58.8252 10.9974C63.447 14.3059 67.1359 18.6027 70.2736 23.458C73.3688 28.3134 75.9129 33.7273 75.9977 39.1842C76.0825 44.684 73.7928 50.1839 71.376 56.2853C68.9591 62.4297 66.4999 69.1326 61.7933 72.4411C57.0868 75.7926 50.0906 75.7496 43.8576 74.4606C37.6247 73.2145 32.1125 70.6794 26.3884 67.9725C20.6642 65.2225 14.728 62.2148 10.5303 57.4024C6.37501 52.5471 3.95815 45.8442 4.00055 39.1412C4.00055 32.4383 6.41741 25.7783 10.5727 20.88C14.728 16.0246 20.6218 12.9739 26.346 10.3529C32.0277 7.68891 37.5823 5.45459 43.1368 5.45459C48.6914 5.49756 54.2035 7.73187 58.8252 10.9974Z" fill="#E4EAFF"/>
<path d="M19.9922 72.6602H16.1932C15.4264 72.6602 14.7991 72.0329 14.7991 71.2661V52.2534C14.7991 51.4866 15.4264 50.8593 16.1932 50.8593H35.2059C35.9727 50.8593 36.6 51.4866 36.6 52.2534V56.0525C36.6 56.8192 35.9727 57.4466 35.2059 57.4466H23.1291C22.3623 57.4466 21.7349 56.8192 21.7349 56.0525C21.7349 55.2857 22.3623 54.6583 23.1291 54.6583H33.8117V53.6475H17.5873V69.8719H18.5981V58.2657C18.5981 57.6906 18.9466 57.1678 19.4869 56.9586C20.0271 56.7495 20.637 56.8889 21.0204 57.3072C26.1439 62.8663 33.3935 66.0555 40.9219 66.0555C55.8915 66.0555 68.0555 53.8915 68.0555 38.9219C68.0555 35.8896 67.5152 32.8399 66.4696 29.8773C66.4696 29.8599 66.4522 29.8425 66.4522 29.8251C65.0755 25.3638 60.9802 20.7283 60.8059 20.5191C55.6824 14.96 48.4328 11.7883 40.9219 11.7883C25.9522 11.7883 13.7883 23.9522 13.7883 38.9219C13.7883 41.9716 14.3285 45.0038 15.3741 47.9664C15.6355 48.6983 15.2521 49.4825 14.5202 49.7439C13.7883 50.0053 13.0041 49.622 12.7427 48.89C11.5925 45.6312 11 42.2678 11 38.9219C11 22.4187 24.4187 9 40.9219 9C49.217 9 57.216 12.5202 62.8623 18.637C62.8623 18.637 62.8623 18.6545 62.8797 18.6545C63.0714 18.8636 67.5152 23.8477 69.1011 28.9712C70.2512 32.23 70.8438 35.5759 70.8438 38.9219C70.8438 55.4251 57.4251 68.8438 40.9219 68.8438C33.7594 68.8438 26.8061 66.2123 21.4038 61.5419V71.2486C21.3864 72.0329 20.759 72.6602 19.9922 72.6602ZM40.9044 41.6753L55.0202 41.4662C55.787 41.4488 56.3969 40.8214 56.3969 40.0546C56.3795 39.2878 55.7695 38.6779 55.0028 38.6779H54.9853L42.2812 38.8696V21.8087C42.2812 21.0419 41.6538 20.4146 40.887 20.4146C40.1202 20.4146 39.4929 21.0419 39.4929 21.8087V40.2812C39.4929 40.6471 39.6497 41.0131 39.9111 41.2745C40.1725 41.5359 40.5211 41.6753 40.887 41.6753H40.9044Z" fill="black"/>
</svg>
